# xmcd
#
# Track frame offsets:
#	750
#	16057
#	31191
#	46635
#	61806
#	76801
#	92269
#	107092
#	118820
#	131829
#	145757
#	158801
#	173168
#	187966
#	202854
#	230571
#
# Disc length: 3082 seconds
#
# Revision: 1
# Processed by: cddbd v1.5.2PL0 Copyright (c) Steve Scherf et al.
# Submitted via: audiograbber 1.83.01
#
DISCID=bb0c0010
DTITLE=Feldberger - Spass ohne Grenzen
DYEAR=1900
DGENRE=
TTITLE0=Auf unserem Berg
TTITLE1=Badewanne
TTITLE2=Spiel noch mal
TTITLE3=Heut ist die Nacht
TTITLE4=1, 2, 3
TTITLE5=Superstar
TTITLE6=die Welt von ganz weit oben seh´n
TTITLE7=Silverstar
TTITLE8=Ich mag
TTITLE9=Macht nix
TTITLE10=Merci, dass es Frauen gibt
TTITLE11=Spass ohne Grenzen
TTITLE12=Wir feiern heut
TTITLE13=Frau Wäber AOK
TTITLE14=Frau Wäber Landflirt
TTITLE15=Daten-CD
EXTD=
EXTT0=
EXTT1=
EXTT2=
EXTT3=
EXTT4=
EXTT5=
EXTT6=
EXTT7=
EXTT8=
EXTT9=
EXTT10=
EXTT11=
EXTT12=
EXTT13=
EXTT14=
EXTT15=
PLAYORDER=
